<?xml version="1.0" encoding="UTF-8"?>
<svg version="1.1" xmlns="http://www.w3.org/2000/svg" width="320" height="320">
<path d="M0 0 C78.54 0 157.08 0 238 0 C238 95.04 238 190.08 238 288 C159.46 288 80.92 288 0 288 C0 192.96 0 97.92 0 0 Z " fill="#FCDB01" transform="translate(41,16)"/>
<path d="M0 0 C58.74 0 117.48 0 178 0 C178 16.17 178 32.34 178 49 C137.08 49 96.16 49 54 49 C54 54.61 54 60.22 54 66 C94.92 66 135.84 66 178 66 C178 81.51 178 97.02 178 113 C137.08 113 96.16 113 54 113 C54 118.94 54 124.88 54 131 C94.92 131 135.84 131 178 131 C178 147.17 178 163.34 178 180 C119.26 180 60.52 180 0 180 C0 120.6 0 61.2 0 0 Z " fill="#03559B" transform="translate(69,47)"/>
<path d="M0 0 C78.54 0 157.08 0 238 0 C238 95.04 238 190.08 238 288 C159.46 288 80.92 288 0 288 C0 192.96 0 97.92 0 0 Z M6 7 C5.9023967 8.46382082 5.87444533 9.93234293 5.87415886 11.39941406 C5.87155111 12.3552388 5.86894336 13.31106354 5.86625659 14.29585266 C5.86848732 15.35837753 5.87071804 16.4209024 5.87301636 17.515625 C5.87145637 18.63466721 5.86989638 19.75370941 5.86828911 20.90666199 C5.86427383 24.68778773 5.8674708 28.4688739 5.87060547 32.25 C5.86925166 34.94799926 5.86750827 37.64599571 5.86529541 40.34399414 C5.86083697 46.93023378 5.86181451 53.51646205 5.86470805 60.10270214 C5.8669618 65.45307191 5.86727473 70.80343849 5.86618423 76.15380859 C5.866031 76.91383336 5.86587777 77.67385813 5.86571989 78.45691395 C5.86540018 80.00064468 5.86507597 81.54437542 5.8647473 83.08810616 C5.86189229 97.58092172 5.86517986 112.07373096 5.87054767 126.56654549 C5.87501572 139.01572099 5.8742398 151.46488717 5.86962891 163.9140625 C5.86428351 178.35322727 5.86216698 192.7923865 5.86524117 207.23155212 C5.86555974 208.76976522 5.86587411 210.30797831 5.86618423 211.84619141 C5.86633851 212.60312192 5.86649279 213.36005243 5.86665174 214.13992023 C5.867517 219.48699895 5.86605382 224.83407417 5.86370468 230.18115234 C5.86090687 236.69295092 5.86164455 243.20473743 5.86698543 249.71653461 C5.8696227 253.042161 5.87009332 256.36776297 5.86733627 259.69338989 C5.86462796 263.29040541 5.86800198 266.88736322 5.87301636 270.484375 C5.87078564 271.54689987 5.86855491 272.60942474 5.86625659 273.70414734 C5.86886434 274.65997208 5.87147209 275.61579681 5.87415886 276.60058594 C5.87432121 277.43201111 5.87448356 278.26343628 5.87465084 279.12005615 C5.79363566 281.0131346 5.79363566 281.0131346 7 282 C9.88027717 282.10016659 12.73665119 282.13438731 15.61743164 282.12698364 C16.98972852 282.12932363 16.98972852 282.12932363 18.38974857 282.13171089 C21.47990047 282.13572505 24.57000392 282.13252964 27.66015625 282.12939453 C29.86555002 282.13074839 32.07094356 282.13252823 34.27633667 282.13470459 C40.28442306 282.13928078 46.29249236 282.1374886 52.30057907 282.1343255 C58.57286375 282.13180286 64.84514691 282.13413917 71.11743164 282.13571167 C82.32866312 282.13765052 93.53988753 282.13453274 104.75111735 282.12945233 C114.9262045 282.12498429 125.10128024 282.12576022 135.27636719 282.13037109 C147.07864611 282.13571679 158.88091951 282.13771773 170.68319988 282.13475883 C176.93578554 282.13319561 183.18836333 282.1330035 189.44094849 282.13629532 C195.31772778 282.13917288 201.19448542 282.13720047 207.07126236 282.13140106 C209.2348947 282.13007284 211.39852885 282.13046862 213.56216049 282.13266373 C216.50232149 282.13537281 219.44241193 282.13199708 222.38256836 282.12698364 C223.25054582 282.12921436 224.11852327 282.13144509 225.01280308 282.13374341 C228.81391669 282.49224036 228.81391669 282.49224036 232 281 C232.09672647 279.52999954 232.12371776 278.05535444 232.12304783 276.58217525 C232.12503888 275.62225042 232.12702993 274.66232559 232.12908131 273.67331213 C232.12471205 272.07266522 232.12471205 272.07266522 232.12025452 270.43968201 C232.12110894 269.31585068 232.12196337 268.19201936 232.12284368 267.03413254 C232.12450176 263.23685056 232.11897177 259.43961195 232.11352539 255.64233398 C232.112688 252.93286104 232.11335704 250.22338897 232.1139679 247.51391602 C232.11449333 241.66440309 232.11134453 235.81490129 232.10573006 229.96539116 C232.09761764 221.5078868 232.0950001 213.05038784 232.09374207 204.59288002 C232.09155114 190.87254522 232.08488995 177.15221635 232.07543945 163.43188477 C232.06626639 150.10050486 232.05918504 136.76912656 232.05493164 123.43774414 C232.05466892 122.61658308 232.05440619 121.79542202 232.05413551 120.94937729 C232.05283051 116.83002834 232.05156679 112.71067938 232.05032361 108.59133041 C232.03994972 74.394216 232.0223303 40.19710864 232 6 C203.35335355 5.9772098 174.70670824 5.95950191 146.06005451 5.94893467 C142.68155651 5.9476839 139.30305852 5.94638958 135.92456055 5.94506836 C135.25193453 5.94480605 134.57930852 5.94454374 133.8862999 5.94427348 C122.98117581 5.93991676 112.07605697 5.9320292 101.170936 5.9228472 C89.98945918 5.91351072 78.80798417 5.9080193 67.62650341 5.90591151 C61.34260126 5.90460398 55.05871104 5.90151547 48.7748127 5.89426994 C42.86768149 5.88751363 36.96056717 5.88538224 31.05343246 5.88689232 C28.87851177 5.88661581 26.70359054 5.8846084 24.52867317 5.88079453 C21.5731358 5.87586334 18.61766332 5.87699957 15.66212463 5.87974548 C14.78957411 5.87683264 13.91702358 5.8739198 13.01803213 5.87091869 C9.20075919 5.5063439 9.20075919 5.5063439 6 7 Z " fill="#0B4580" transform="translate(41,16)"/>
<path d="M0 0 C78.54 0 157.08 0 238 0 C238 95.04 238 190.08 238 288 C237.34 288 236.68 288 236 288 C234.20393326 284.90818726 233.75073124 282.67954434 233.75390434 279.11932755 C233.74992225 278.13252919 233.74594015 277.14573084 233.74183738 276.12902951 C233.74766307 275.04732441 233.75348875 273.9656193 233.75949097 272.85113525 C233.75778212 271.70023934 233.75607327 270.54934343 233.75431263 269.36357188 C233.75158561 266.16870673 233.75784508 262.97400341 233.76786876 259.7791574 C233.77649848 256.33406944 233.77358344 252.88898916 233.77206421 249.44389343 C233.77101505 243.47491921 233.77729483 237.50598868 233.78853989 231.53702545 C233.8047878 222.90689269 233.81000217 214.27678107 233.81251587 205.64663467 C233.81689409 191.64510775 233.83020663 177.64360412 233.84912109 163.64208984 C233.86747661 150.04020299 233.88161179 136.43832249 233.89013672 122.83642578 C233.89094071 121.56615624 233.89094071 121.56615624 233.89176095 120.27022469 C233.89591974 113.64741782 233.89983361 107.0246108 233.90367007 100.40180373 C233.92254048 67.93451444 233.96277636 35.46728345 234 3 C156.78 3 79.56 3 0 3 C0 2.01 0 1.02 0 0 Z " fill="#5CA3D3" transform="translate(41,16)"/>
<path d="M0 0 C3.114375 -0.0825 6.22875 -0.165 9.4375 -0.25 C10.39970459 -0.28641602 11.36190918 -0.32283203 12.35327148 -0.36035156 C20.18116611 -0.45938829 26.04223424 1.52513478 32.0625 6.5625 C34.81115883 11.43915276 34.84133683 15.52722648 34 21 C31.89614295 26.16401277 28.34043174 28.76842125 23.4140625 31.09765625 C15.8055167 33.10861058 7.78653038 32.25955101 0 32 C0 21.44 0 10.88 0 0 Z " fill="#164476" transform="translate(106,244)"/>
<path d="M0 0 C75.24 0 150.48 0 228 0 C228 43.23 228 86.46 228 131 C227.67 131 227.34 131 227 131 C226.67 89.09 226.34 47.18 226 4 C114.625 3.505 114.625 3.505 1 3 C0.67 2.01 0.34 1.02 0 0 Z " fill="#126BA1" transform="translate(47,19)"/>
<path d="M0 0 C10.23 0 20.46 0 31 0 C31 2.64 31 5.28 31 8 C24.07 8 17.14 8 10 8 C10 9.32 10 10.64 10 12 C16.93 12 23.86 12 31 12 C31 14.31 31 16.62 31 19 C24.07 19 17.14 19 10 19 C10 20.65 10 22.3 10 24 C16.93 24 23.86 24 31 24 C31 26.64 31 29.28 31 32 C20.77 32 10.54 32 0 32 C0 21.44 0 10.88 0 0 Z " fill="#194A76" transform="translate(145,244)"/>
<path d="M0 0 C9.9 0 19.8 0 30 0 C30 1.98 30 3.96 30 6 C23.07 6 16.14 6 9 6 C9 7.65 9 9.3 9 11 C15.93 11 22.86 11 30 11 C30 13.31 30 15.62 30 18 C23.07 18 16.14 18 9 18 C9 19.65 9 21.3 9 23 C15.93 23 22.86 23 30 23 C30 25.31 30 27.62 30 30 C20.1 30 10.2 30 0 30 C0 20.1 0 10.2 0 0 Z " fill="#0C387A" transform="translate(70,245)"/>
<path d="M0 0 C4.95 0 9.9 0 15 0 C15.31453125 1.03898438 15.6290625 2.07796875 15.953125 3.1484375 C18.11243668 10.20580336 20.26971189 17.14169089 23.30078125 23.88671875 C24.11601441 26.35063574 24.12192904 28.42142666 24 31 C21.36 31 18.72 31 16 31 C15.505 28.525 15.505 28.525 15 26 C10.38 26 5.76 26 1 26 C0.67 27.65 0.34 29.3 0 31 C-3.3 31 -6.6 31 -10 31 C-7.90841678 23.90792397 -5.66977863 16.88285965 -3.3125 9.875 C-2.83200195 8.44027344 -2.83200195 8.44027344 -2.34179688 6.9765625 C-1.56259091 4.65057455 -0.78149639 2.3252194 0 0 Z " fill="#0A4D8A" transform="translate(228,244)"/>
<path d="M0 0 C3.3 0 6.6 0 10 0 C10.33 3.63 10.66 7.26 11 11 C11.58265625 10.2059375 12.1653125 9.411875 12.765625 8.59375 C19.38219275 0.35425053 19.38219275 0.35425053 24.3359375 -0.73046875 C27.29460569 -0.69181632 30.08476863 -0.49588987 33 0 C33 2 33 2 30.875 4.25 C29.92625 5.1575 28.9775 6.065 28 7 C26.89324444 8.10157169 25.78904707 9.20571993 24.6875 10.3125 C23.800625 11.199375 22.91375 12.08625 22 13 C23.4412478 17.34750022 25.65334274 20.23000036 28.625 23.6875 C33 28.78706625 33 28.78706625 33 31 C29.19390478 31.55749315 25.78428446 31.77613341 22 31 C19.00708564 28.37992309 16.99144887 25.42556392 15 22 C13.02 22.66 11.04 23.32 9 24 C9 26.31 9 28.62 9 31 C6.03 31 3.06 31 0 31 C0 20.77 0 10.54 0 0 Z " fill="#0C4882" transform="translate(182,244)"/>
<path d="M0 0 C78.54 0 157.08 0 238 0 C238 17.82 238 35.64 238 54 C237.01 54.495 237.01 54.495 236 55 C235.67 37.51 235.34 20.02 235 2 C161.74 2 88.48 2 13 2 C13 2.33 13 2.66 13 3 C8.71 3 4.42 3 0 3 C0 2.01 0 1.02 0 0 Z " fill="#3D9BD4" transform="translate(41,16)"/>
<path d="M0 0 C39.93 0 79.86 0 121 0 C121 43.23 121 86.46 121 131 C120.67 131 120.34 131 120 131 C119.99576806 130.34639779 119.99153612 129.69279558 119.98717594 129.01938725 C119.88400775 113.13807581 119.77539106 97.2568125 119.66066074 81.37558079 C119.60531103 73.69563401 119.55182623 66.01568259 119.50268555 58.33569336 C119.45986505 51.64419097 119.41359255 44.95272303 119.36312145 38.2612738 C119.33650323 34.71606424 119.31164982 31.17086159 119.29092598 27.62561226 C119.26776379 23.67427132 119.23689681 19.72301166 119.20532227 15.77172852 C119.1995668 14.58778 119.19381134 13.40383148 119.18788147 12.18400574 C119.17809265 11.11403351 119.16830383 10.04406128 119.15821838 8.94166565 C119.15176583 8.00604577 119.14531328 7.07042589 119.1386652 6.1064539 C119.2333028 4.01359206 119.2333028 4.01359206 118 3 C115.20535485 2.87997856 112.43434026 2.82451333 109.63842773 2.81054688 C108.32078178 2.79810692 108.32078178 2.79810692 106.97651672 2.78541565 C105.05750306 2.76795717 103.13846739 2.75280648 101.21941948 2.73963928 C98.15884344 2.7185797 95.09837153 2.69154156 92.03785706 2.66296387 C85.50444601 2.6031263 78.9709826 2.55131983 72.4375 2.5 C64.93936579 2.44029458 57.44127828 2.37716195 49.94322395 2.30812073 C46.97058236 2.28212019 43.99793492 2.26093915 41.0252533 2.2401123 C27.3344464 2.1270209 13.67553765 1.64903149 0 1 C0 0.67 0 0.34 0 0 Z " fill="#006BB7" transform="translate(154,19)"/>
<path d="M0 0 C9.6092603 -0.43026539 9.6092603 -0.43026539 14 3 C15 4 15 4 15.3125 7.3125 C15 11 15 11 13.125 13.375 C8.75987587 16.7130361 5.38855215 16.07697932 0 16 C0 10.72 0 5.44 0 0 Z " fill="#F8D402" transform="translate(116,252)"/>
<path d="M0 0 C3 1 3 1 4.1875 3.3125 C5 6 5 6 5 10 C2.69 10 0.38 10 -2 10 C-1.54177532 6.53058454 -1.10868317 3.32604951 0 0 Z " fill="#E0CA10" transform="translate(234,252)"/>
</svg>
